<?xml version="1.0" encoding="utf-8"?>
<!-- Generator: Adobe Illustrator 21.0.2, SVG Export Plug-In . SVG Version: 6.00 Build 0)  -->
<svg version="1.1" id="Capa_1" xmlns="http://www.w3.org/2000/svg" xmlns:xlink="http://www.w3.org/1999/xlink" x="0px" y="0px"
	 viewBox="0 0 191.6 135.5" style="enable-background:new 0 0 191.6 135.5;" xml:space="preserve">
<style type="text/css">
	.st0{fill:#F48E28;}
</style>
<g id="XMLID_19_">
	<g id="XMLID_35_">
		<path id="XMLID_53_" class="st0" d="M71.5,43.4c0.8-3.4-3-7.9-7.6-7.1c-4.7,0.8-8.7,1.4-9.8,6C53,46.8,69.6,51.5,71.5,43.4z"/>
		<path id="XMLID_48_" class="st0" d="M114.4,42.3c-1-0.6-10-0.6-13.8,2.9c-2.9,2.8-8.1,12.6-12.3,21.7c3-10.1,5.3-17.5,5.8-19.5
			c0.9-3.7-4-2.8-7.5-2.2c-2.4,0.4-6.8,10.7-10.5,23.7c-0.2,0.2-0.3,0.5-0.5,0.8C74.4,72.1,64,88.7,59.7,91.3
			c-0.8-3.1-1.4-8.8,0.8-18.5c0.9-3.9,2.7-9.4,3.5-12.6c1-4.5-10-5.9-11-1.9c-0.5,2.3-2.4,6.2-4.9,16.7c-1.9,8.3-4.3,24.9,8,22.7
			c5.7-1,15.1-16.8,18-21.8c-5.9,22.9-8.9,49.9,2.4,47.9c4.7-0.8-1.3-4.5,4.1-27.8c1.1-4.8,2.3-9.6,3.5-14.1
			c4-8.9,15.4-33.4,21.4-34.4c3.2-0.6-4.5,39.7-16.2,41.8c-5.3,0.9-0.8,3.3,4.7,2.4C114.8,88,124.7,47.9,114.4,42.3z"/>
		<path id="XMLID_47_" class="st0" d="M147.8,98.1c-11.3,1.9-10.1-12.1-7.2-23.2c2.8-10.5,4.8-14.5,5.4-16.7
			c1.1-4,11.9-2.2,10.7,2.3c-0.9,3.3-2.9,8.8-3.9,12.7c-2.6,9.7-2.2,15.5-1.5,18.7C151.4,91.8,153.2,97.2,147.8,98.1z"/>
		<path id="XMLID_46_" class="st0" d="M163.1,47.8c0.9-3.4-2.6-8.1-7.2-7.5c-4.7,0.7-8.7,1.1-9.9,5.7C144.8,50.6,161,56,163.1,47.8z
			"/>
		<path id="XMLID_45_" class="st0" d="M86.1,98.2c0,0,56.6,29.4,83.3-12.5c0,0,2.6-5.2,7-8.8c6.2-5.1,13.8,1.8,9.1,9.5
			C173.9,105.2,136.3,131.7,86.1,98.2z"/>
		<path id="XMLID_44_" class="st0" d="M166.1,17.6c-4,0-9.9,0.6-16.5,1.8c0.9-2.6,1.6-4.6,1.8-5.7c1.5-6.8-8.8-10.2-10.7-1.5
			c-0.3,1.5-1.8,5.2-3.8,10.2c-2.6,0.8-1.9,0.5-10.3,3.5c0,0-10.2,4.4-12.3,8.8c0,0-1.1,4.1,4,1.9c8.3-3.5,9.1-3.6,14.9-5.2
			c-4.6,11.9-10.6,27-13.4,39.4c-4.3,19.7,1.8,28.6,7.5,27.6c5.7-1.1-2.1-1.5,3.2-25.5c2.6-12,12.5-35.8,15.8-44.7
			c8.7-1.8,16.8-2.8,21.9-2.8c3.3,0,5.8,0.8,5.7-0.6C174,22.6,170.1,17.6,166.1,17.6z"/>
		<path id="XMLID_38_" class="st0" d="M88.2,10.7c-2.1-2.2-4.7-2.9-7.7-3c-0.5,0-0.9,0-1.4-0.1c-6.9-0.2-13.8,1.1-20.6,2.5
			c-9.7,2-29.9,8.5-45.6,19.7c-5.7,4.1-9.1,9.8-10,13.8c-0.5,2.2-0.6,4.4-0.3,6.6c0.3,2.3,1.4,4.2,3.2,5.7c0.9,0.8,3.2,1.2,3.7-0.3
			c0.5-1.3-1-2-1.7-2.8c-0.9-1.1-0.8-2.7-0.2-4c1.1-2.1,3.4-3.9,5.3-5.3c5.7-4.3,11.8-8.1,18.1-11.3c-3.9,16.5-9.5,39.5-10.4,53.7
			c-0.2,3.7-0.3,7.2,1.7,9.8c0.9,1.1,2,1.9,3.4,2.2c2,0.4,5.5,0,6.5-1.9c1.1-2,0.3-4.4,0.9-10c0.3-5.1,1-9.9,1.7-14.9
			c2.1-15,7.2-33.1,9.7-42.5l0.9-2.5c8.8-3.2,17.9-6.1,27.1-7.4c3.2-0.4,6.5-0.6,9.8-0.3c1.7,0.2,3.4,0.4,5,0.8
			c1.1,0.3,2.6,0.5,3.1-0.8C91.5,15.7,90.2,12.7,88.2,10.7z"/>
	</g>
</g>
</svg>
