<?xml version="1.0" encoding="utf-8"?>
<!-- Generator: Adobe Illustrator 18.1.1, SVG Export Plug-In . SVG Version: 6.00 Build 0)  -->
<svg version="1.1" id="Capa_1" xmlns="http://www.w3.org/2000/svg" xmlns:xlink="http://www.w3.org/1999/xlink" x="0px" y="0px"
	 width="400px" height="400px" viewBox="0 0 400 400" enable-background="new 0 0 400 400" xml:space="preserve">
<g>
	<g>
		<path fill="#ffffff" d="M262.6,136.3c-9.8-9.8-21.7-14.7-35.6-14.7c-13.9,0-25.9,4.9-35.8,14.7c-8.9,9-13.7,19.8-14.6,32.3
			c-0.9,12.6,2.4,23.8,10,33.8l-7.9,7.7c-0.6-0.1-1.3-0.2-2-0.2c-6.1-0.7-11.6,1.4-16.3,6.3l-32.5,32.3c-3.7,3.8-5.8,8.1-6.3,12.9
			c-0.5,4.8,0.8,8.7,4,11.8c3.1,3.1,7.1,4.4,11.9,3.9c4.8-0.4,9-2.5,12.8-6.2l32.5-32.5c4.2-4.2,6.3-8.9,6.3-14.2
			c0.2-1.4,0.2-2.9,0-4.5l7.5-7.5c9.8,7.5,21.1,10.9,33.8,10.1c12.7-0.8,23.5-5.7,32.5-14.6c9.8-9.9,14.7-21.9,14.7-35.8
			S272.5,146.1,262.6,136.3z M252.2,197.3c-6.9,7-15.4,10.5-25.2,10.5c-9.9,0-18.3-3.5-25.3-10.5c-7-7-10.5-15.4-10.5-25.3
			s3.5-18.3,10.5-25.2c7-6.9,15.4-10.4,25.3-10.4c9.9,0,18.3,3.5,25.2,10.4c6.9,6.9,10.4,15.4,10.4,25.2
			C262.6,181.8,259.2,190.3,252.2,197.3z"/>
	</g>
</g>
</svg>
